<?xml version="1.0" encoding="utf-8"?>
<!-- Generator: Adobe Illustrator 21.1.0, SVG Export Plug-In . SVG Version: 6.00 Build 0)  -->
<svg version="1.1" id="Ebene_1" xmlns="http://www.w3.org/2000/svg" xmlns:xlink="http://www.w3.org/1999/xlink" x="0px" y="0px"
	 viewBox="0 0 118.7 26.6" style="enable-background:new 0 0 118.7 26.6;" xml:space="preserve">
<style type="text/css">
	.st0{fill-rule:evenodd;clip-rule:evenodd;fill:#E30613;}
	.st1{fill-rule:evenodd;clip-rule:evenodd;fill:#FFFFFF;}
	.st2{fill:#FFFFFF;}
	.st3{fill:#E30613;}
</style>
<g>
	<path class="st0" d="M14,0h90.7c7.8,0,14,6,14,13.3c0,7.3-6.3,13.3-14,13.3H14c-7.7,0-14-6-14-13.3C0,6,6.3,0,14,0"/>
	<path class="st1" d="M105.2,24.9H13.6c-6.4,0-11.6-5.2-11.6-11.6c0-6.4,5.2-11.6,11.6-11.6c6.4,0,0,0,0,0h5.1v0.7
		c-0.5,0-3.6-0.3-2.7,2.5l5.2,13.9l4-10.7L24.2,5c-0.6-2.3-1.7-2.5-3.5-2.5V1.8h9.8v0.7c-2.1,0-4.1-0.2-3.2,2.5L32,18.6L37,5
		c0.9-3.1-2.2-2.4-3.2-2.5V1.8h71.4c6.4,0,11.6,5.2,11.6,11.6C116.8,19.7,111.6,24.9,105.2,24.9C98.8,24.9,105.2,24.9,105.2,24.9"/>
	<path class="st0" d="M7.4,4.4c2.1-1.6,4.4-2,5.6,0.6L20.2,24l5.5-14.5L31,24l7.1-19c0.9-1.9,1.1-2.6,4.5-2.7h62.5
		c6.1,0,11,4.9,11,11s-4.9,11-11,11H13.8c-6.1,0-11-4.9-11-11C2.8,9.6,4.6,6.4,7.4,4.4L7.4,4.4z"/>
	<path class="st2" d="M77,5.9L85.7,16V7.8c0-1.5-1-1.3-2.2-1.3V5.9h5.6v0.6c-1.2,0-2.4-0.1-2.4,1.3l0,13.3L76.2,8.8v9.8
		c0,1.5,1.1,1.5,2.3,1.5v0.6h-5.9v-0.6c1.6,0,2.6-0.3,2.6-1.5v-11c-0.8-1.2-2-1.1-2.6-1.1V5.9H77z"/>
	<path class="st2" d="M46,5.9v0.6c0,0-2.3-0.4-2.3,1.3v10.7c0,1.9,2.3,1.5,2.3,1.5v0.6h-7.1v-0.6c0,0,2.3,0.4,2.3-1.5V7.8
		c0-1.7-2.1-1.4-2.1-1.4s0-0.6,0-0.6H46z"/>
	<path class="st2" d="M71.1,5.9v0.6c0,0-2.1-0.2-2.1,1.3v10.7c0,1.9,2.1,1.5,2.1,1.5v0.6h-6.4v-0.6c0,0,1.8,0.4,1.8-1.5V7.8
		c0-1.6-2-1.4-2-1.4s0-0.6,0-0.6H71.1z"/>
	<path class="st2" d="M97.1,5.7c2.8,0,4.1,0.6,5.6,1.2c0.2,0.1,0,0,0.2,0.1l-0.1,4.3l-0.5,0c0-0.3-0.3-5-5.2-4.9
		c-1.2,0-5.4,1.5-5.4,7.1c0,3.3,1.9,7.1,5.4,7.1c2,0,3.3-1.4,3.3-1.4v-4.3c0-1.8-1.8-1.6-2.3-1.6v-0.6c0,0,0,0,7,0v0.6
		c-0.9,0-2.1-0.2-2.1,1.6v4.7c-1.2,0.6-3,1.5-5.9,1.5c-4.8,0-8.2-3.2-8.2-7.7C88.9,9.5,91.7,5.7,97.1,5.7"/>
	<path class="st2" d="M63.4,5.9v0.6h-0.8c-1.6,0-1.7,0.1-3,1.4l-4.2,4.4l6.4,7c1,0.9,2,0.8,2,0.8v0.6h-6.6v-0.6c0,0,2.3,0,1.5-0.8
		l-5.4-5.9l5.2-5.5c0.2-0.2,0.6-1.3-0.9-1.3h-0.7V5.9H63.4z"/>
	<path class="st2" d="M55.5,5.9l0,0.6c0,0-2.3-0.4-2.3,1.3v10.7c0,1.7,2.2,1.5,2.2,1.5v0.6h-7.2v-0.6c0,0,2.5,0.2,2.5-1.5V7.8
		c0-1.7-2.3-1.3-2.3-1.3c0,0,0-0.6,0-0.6H55.5z"/>
	<path class="st2" d="M106.8,20.9c1.2,0,2.1-0.9,2.1-2.1c0-1.2-0.9-2.1-2.1-2.1c-1.2,0-2.1,0.9-2.1,2.1
		C104.8,20,105.7,20.9,106.8,20.9"/>
	<path class="st3" d="M106.8,17.2c0.9,0,1.6,0.7,1.6,1.6c0,0.9-0.7,1.6-1.6,1.6c-0.9,0-1.6-0.7-1.6-1.6
		C105.2,17.9,105.9,17.2,106.8,17.2"/>
	<path class="st2" d="M107.9,18.4c0-0.6-0.3-0.7-0.8-0.7h-1v2.2h0.5v-0.9h0.4l0.5,0.9h0.5l-0.5-0.9C107.7,19,107.9,18.8,107.9,18.4
		 M106.4,18.7v-0.5h0.5c0.2,0,0.5,0,0.5,0.2c0,0.2-0.1,0.3-0.4,0.3H106.4z"/>
</g>
</svg>
